<svg width="77" height="38" viewBox="0 0 77 38" fill="none" xmlns="http://www.w3.org/2000/svg">
<mask id="path-1-outside-1" maskUnits="userSpaceOnUse" x="0" y="0" width="77" height="38" fill="black">
<rect fill="white" width="77" height="38"/>
<path fill-rule="evenodd" clip-rule="evenodd" d="M23.5746 13.0452C22.5877 12.1357 21.6345 11.3372 20.7149 10.6495C20.7374 9.91746 20.9504 9.15216 21.3541 8.35358C21.7579 7.53282 22.1952 6.70096 22.6662 5.85802C23.1372 5.01508 23.5858 4.18322 24.012 3.36246C24.4381 2.51952 24.696 1.73203 24.7858 1C24.3372 1.04437 23.911 1.15528 23.5073 1.33274C23.1036 1.5102 22.6774 1.59893 22.2289 1.59893C21.5784 1.59893 20.928 1.55457 20.2776 1.46584C19.6496 1.35492 19.0103 1.29947 18.3599 1.29947C17.6422 1.29947 16.9805 1.44366 16.3749 1.73203C15.7694 1.99822 15.2423 2.37533 14.7937 2.86335C14.3676 3.32919 14.0311 3.88376 13.7844 4.52706C13.5377 5.14817 13.4143 5.80256 13.4143 6.49023C13.4143 7.33317 13.5377 8.0652 13.7844 8.68632C14.0536 9.28525 14.4012 9.82873 14.8274 10.3168C15.2535 10.8048 15.7357 11.2706 16.274 11.7143C16.8347 12.1357 17.4067 12.5794 17.9898 13.0452C17.945 13.3558 17.8665 13.6663 17.7543 13.9769C17.6646 14.2653 17.5525 14.5647 17.4179 14.8753C17.3057 15.1637 17.2048 15.4631 17.1151 15.7737C17.0254 16.0621 16.9805 16.3726 16.9805 16.7054C16.9805 17.149 17.1039 17.5594 17.3506 17.9365C17.5973 18.2914 17.9674 18.4689 18.4608 18.4689C18.8645 18.4689 19.201 18.3247 19.4701 18.0363C19.7617 17.748 19.9075 17.4041 19.9075 17.0048C19.9075 16.6721 19.8066 16.3726 19.6047 16.1064C19.5598 16.2174 19.4813 16.3283 19.3692 16.4392C19.2571 16.5501 19.1337 16.6056 18.9991 16.6056C18.887 16.6056 18.786 16.5501 18.6963 16.4392C18.629 16.3283 18.5954 16.2174 18.5954 16.1064C18.5954 15.685 18.6739 15.2746 18.8309 14.8753C19.0103 14.476 19.201 14.0989 19.4028 13.744C20.2103 14.2764 21.0065 14.8642 21.7915 15.5075C22.5765 16.1508 23.283 16.8718 23.911 17.6703C24.5615 18.4467 25.0773 19.2897 25.4586 20.1992C25.8623 21.0865 26.0642 22.0403 26.0642 23.0607C26.0642 24.8575 25.795 26.4769 25.2568 27.9188C24.7409 29.3828 23.9783 30.6251 22.969 31.6455C21.9597 32.6659 20.7261 33.4534 19.2683 34.0079C17.8328 34.5625 16.1955 34.8398 14.3564 34.8398C12.7863 34.8398 11.3621 34.5403 10.0837 33.9414C8.80523 33.3646 7.71743 32.566 6.82028 31.5456C5.92312 30.5474 5.22783 29.3717 4.7344 28.0186C4.26339 26.6876 4.02789 25.279 4.02789 23.7928C4.02789 22.1512 4.37554 20.6206 5.07083 19.2009C5.78855 17.7591 6.71935 16.4614 7.86322 15.3079L5.47455 13.2781C4.08396 14.6757 2.98495 16.2728 2.17751 18.0696C1.3925 19.8664 1 21.7409 1 23.6929C1 25.5563 1.33643 27.3087 2.0093 28.9503C2.68216 30.614 3.61296 32.0669 4.80168 33.3092C5.99041 34.5514 7.39221 35.5274 9.00708 36.2373C10.6444 36.9693 12.4275 37.3353 14.3564 37.3353C16.532 37.3353 18.5281 36.9804 20.3448 36.2706C22.1616 35.5829 23.7204 34.6069 25.0213 33.3424C26.3446 32.078 27.3651 30.5474 28.0828 28.7506C28.8005 26.976 29.1594 25.0017 29.1594 22.8278C29.1594 21.6078 28.8902 20.421 28.3519 19.2675C27.8136 18.0918 27.1296 16.9827 26.2997 15.9401C25.4923 14.8975 24.5839 13.9325 23.5746 13.0452ZM18.0235 3.26264C18.2926 3.08518 18.5954 2.99645 18.9318 2.99645C19.201 2.99645 19.4141 3.06299 19.5711 3.19609C19.7505 3.32919 19.8851 3.49556 19.9748 3.6952C20.0869 3.89485 20.1542 4.11668 20.1766 4.36069C20.2215 4.6047 20.2439 4.82652 20.2439 5.02617C20.2439 5.86911 20.1318 6.71206 19.9075 7.555C19.7056 8.37576 19.4813 9.19652 19.2346 10.0173C18.8309 9.83982 18.472 9.6069 18.158 9.31853C17.844 9.00797 17.5749 8.66414 17.3506 8.28703C17.1487 7.90992 16.9917 7.51064 16.8796 7.08916C16.7899 6.64551 16.745 6.21294 16.745 5.79147C16.745 5.5031 16.7899 5.19254 16.8796 4.8598C16.9917 4.52706 17.1375 4.22759 17.317 3.9614C17.5188 3.67302 17.7543 3.4401 18.0235 3.26264ZM26.2661 18.3025C27.1856 19.9219 27.6454 21.7852 27.6454 23.8926C27.623 22.8278 27.466 21.8296 27.1744 20.8979C26.9053 19.9662 26.524 19.1011 26.0306 18.3025C25.5371 17.4818 24.954 16.7276 24.2811 16.0399C23.6082 15.3301 22.8793 14.6757 22.0943 14.0767C22.0494 14.0989 21.9822 14.1211 21.8924 14.1433C21.8251 14.1655 21.7691 14.1765 21.7242 14.1765C21.4775 14.1765 21.2869 14.0878 21.1523 13.9104C21.0177 13.7329 20.9841 13.5332 21.0514 13.3114C20.5803 13.023 19.9972 12.6459 19.3019 12.1801C18.6066 11.7143 17.9338 11.193 17.2833 10.6162C16.6553 10.0395 16.117 9.42944 15.6684 8.78614C15.2423 8.14284 15.0517 7.48845 15.0965 6.82297C15.0965 7.15571 15.1974 7.51063 15.3993 7.88774C15.6012 8.26485 15.8479 8.64195 16.1394 9.01906C16.4535 9.39617 16.7899 9.76218 17.1487 10.1171C17.5076 10.4498 17.844 10.7382 18.158 10.9822C18.3823 11.1597 18.7524 11.4259 19.2683 11.7808C19.8066 12.1357 20.4682 12.535 21.2532 12.9787C21.2981 12.9565 21.3766 12.9232 21.4887 12.8789C21.6009 12.8345 21.6794 12.8123 21.7242 12.8123C21.9709 12.8123 22.1616 12.9121 22.2962 13.1118C22.4307 13.3114 22.4532 13.5332 22.3634 13.7773C24.068 15.1748 25.3689 16.6832 26.2661 18.3025Z"/>
<path fill-rule="evenodd" clip-rule="evenodd" d="M39.3331 24.613C39.4735 24.0925 39.719 23.8063 40.0699 23.7542C39.8594 23.6328 39.7015 23.4593 39.5963 23.2338C39.491 23.0082 39.4121 22.774 39.3595 22.5311C39.3244 22.2883 39.3068 22.0367 39.3068 21.7765C39.3244 21.5163 39.3331 21.2821 39.3331 21.0739C39.3331 20.8484 39.3244 20.5795 39.3068 20.2672C39.3068 19.9549 39.2893 19.6427 39.2542 19.3304C39.2191 19.0008 39.1665 18.6885 39.0963 18.3936C39.0437 18.0813 38.9736 17.8211 38.8859 17.6129C38.7631 17.3353 38.5701 17.0751 38.307 16.8322C38.0439 16.5893 37.7369 16.3812 37.3861 16.2077C37.0528 16.0342 36.6845 15.8954 36.2811 15.7913C35.8776 15.6872 35.4829 15.6352 35.097 15.6352C34.5708 15.6352 34.0797 15.7393 33.6236 15.9475C33.1676 16.1556 32.7554 16.4332 32.387 16.7802C32.0186 17.1271 31.7117 17.5262 31.4661 17.9772C31.2381 18.4109 31.089 18.8707 31.0188 19.3564C30.9487 19.7381 30.9223 20.1544 30.9399 20.6055C30.9574 21.0565 30.9574 21.4902 30.9399 21.9066C30.9399 22.323 30.896 22.7046 30.8083 23.0516C30.7382 23.3986 30.5715 23.6501 30.3084 23.8063C30.554 23.9103 30.7294 24.1272 30.8346 24.4568C30.9399 24.7864 31.01 25.1854 31.0451 25.6539C31.0802 26.1049 31.0978 26.6167 31.0978 27.1892C31.1153 27.7443 31.1416 28.2995 31.1767 28.8546C31.2293 29.3924 31.317 29.9129 31.4398 30.416C31.5801 30.9017 31.7906 31.3094 32.0713 31.639C32.4572 32.0901 32.9483 32.4024 33.5447 32.5758C34.1586 32.7493 34.7462 32.8361 35.3075 32.8361C35.711 32.8361 36.1144 32.7667 36.5179 32.6279C36.9388 32.4891 37.316 32.2896 37.6492 32.0294C38 31.7691 38.2895 31.4569 38.5175 31.0926C38.7455 30.7282 38.8859 30.3292 38.9385 29.8955C38.9736 29.5486 38.9911 29.0455 38.9911 28.3862C38.9911 27.7096 39.0086 27.0417 39.0437 26.3825C39.0963 25.7059 39.1928 25.1161 39.3331 24.613ZM36.5705 23.2598C36.4828 23.4853 36.3337 23.6501 36.1232 23.7542C36.3512 23.9624 36.5003 24.1619 36.5705 24.3527C36.6406 24.5436 36.6757 24.7864 36.6757 25.0814V25.9401C36.6933 26.2871 36.6933 26.6601 36.6757 27.0591C36.6582 27.4581 36.6231 27.8658 36.5705 28.2821C36.5179 28.6985 36.4302 29.0715 36.3074 29.4011C36.2021 29.7307 36.0443 29.9996 35.8338 30.2078C35.6233 30.416 35.3602 30.5201 35.0444 30.5201C34.5533 30.5201 34.1937 30.3119 33.9657 29.8955C33.7376 29.4618 33.5885 28.9587 33.5184 28.3862C33.4482 27.8137 33.4219 27.2412 33.4394 26.6687C33.4745 26.0789 33.4921 25.6278 33.4921 25.3156C33.4921 25.0553 33.5272 24.7864 33.5973 24.5089C33.685 24.2139 33.9043 23.9711 34.2551 23.7802C33.9043 23.6067 33.6938 23.3292 33.6236 22.9475C33.571 22.5658 33.5447 22.2189 33.5447 21.9066C33.5447 21.5943 33.5359 21.1953 33.5184 20.7096C33.5184 20.2238 33.5622 19.7554 33.6499 19.3044C33.7552 18.8533 33.9306 18.4716 34.1762 18.1594C34.4217 17.8298 34.7989 17.6649 35.3075 17.6649C35.6759 17.6649 35.9565 17.7951 36.1495 18.0553C36.3424 18.3155 36.4828 18.6278 36.5705 18.9921C36.6582 19.3391 36.702 19.7034 36.702 20.085C36.7196 20.4493 36.7283 20.7443 36.7283 20.9698C36.7283 21.178 36.7371 21.4209 36.7547 21.6984C36.7722 21.9587 36.7634 22.2276 36.7283 22.5051C36.7108 22.7654 36.6582 23.0169 36.5705 23.2598ZM32.7554 24.0144C32.7554 24.2747 32.6238 24.4481 32.3607 24.5349C32.3081 25.8534 32.2905 26.7815 32.3081 27.3193C32.3431 27.8397 32.3081 28.8199 32.2028 30.2598C32.2028 29.2189 32.1765 28.2388 32.1239 27.3193C32.0713 26.3998 32.045 25.4717 32.045 24.5349C31.9397 24.5002 31.8432 24.4395 31.7555 24.3527C31.6854 24.2486 31.6503 24.1359 31.6503 24.0144C31.6503 23.893 31.6854 23.7889 31.7555 23.7022C31.8257 23.5981 31.9222 23.5287 32.045 23.494C32.045 23.0776 32.0625 22.4704 32.0976 21.6724C32.1502 20.8744 32.1853 20.0156 32.2028 19.0962C32.2379 19.8422 32.2642 20.458 32.2818 20.9438C32.2993 21.4295 32.3081 21.8372 32.3081 22.1668C32.3256 22.4791 32.3344 22.7393 32.3344 22.9475C32.3344 23.1383 32.3431 23.3205 32.3607 23.494C32.4835 23.5287 32.5799 23.5981 32.6501 23.7022C32.7203 23.7889 32.7554 23.893 32.7554 24.0144ZM38.3859 23.8843C38.3859 24.1445 38.2544 24.318 37.9913 24.4048C37.9387 25.7232 37.9211 26.6514 37.9387 27.1892C37.9737 27.7096 37.9387 28.6898 37.8334 30.1297C37.8334 29.0888 37.8071 28.1086 37.7545 27.1892C37.7019 26.2697 37.6755 25.3416 37.6755 24.4048C37.5703 24.3701 37.4738 24.3094 37.3861 24.2226C37.316 24.1185 37.2809 24.0058 37.2809 23.8843C37.2809 23.7629 37.316 23.6588 37.3861 23.5721C37.4563 23.468 37.5528 23.3986 37.6755 23.3639C37.6755 22.9475 37.6931 22.3403 37.7282 21.5423C37.7808 20.7443 37.8159 19.8855 37.8334 18.9661C37.8685 19.712 37.8948 20.3279 37.9123 20.8137C37.9299 21.2994 37.9387 21.7071 37.9387 22.0367C37.9562 22.349 37.965 22.6092 37.965 22.8174C37.965 23.0082 37.9737 23.1904 37.9913 23.3639C38.1141 23.3986 38.2105 23.468 38.2807 23.5721C38.3509 23.6588 38.3859 23.7629 38.3859 23.8843Z"/>
<path fill-rule="evenodd" clip-rule="evenodd" d="M41.1406 15.9995C41.4388 16.173 41.6493 16.5546 41.7721 17.1445C41.8949 17.717 41.965 18.3502 41.9826 19.0441C42.0176 19.7381 42.0176 20.4147 41.9826 21.0739C41.965 21.7331 41.9562 22.2189 41.9562 22.5311V22.9996C41.9562 23.1557 41.9299 23.3118 41.8773 23.468C41.8422 23.6067 41.7721 23.7369 41.6668 23.8583C41.5616 23.9797 41.4037 24.0665 41.1932 24.1185C41.3511 24.1879 41.4651 24.2486 41.5353 24.3007C41.623 24.3527 41.6844 24.4134 41.7194 24.4828C41.7721 24.5349 41.7984 24.6043 41.7984 24.691C41.8159 24.7778 41.8335 24.8905 41.851 25.0293C41.9563 25.7232 42.0089 26.3912 42.0089 27.033V29.0108C42.0089 29.6179 41.9738 30.2078 41.9036 30.7803C41.8335 31.3354 41.5528 31.8385 41.0617 32.2896C40.9213 32.4284 40.895 32.5238 40.9827 32.5758C41.0704 32.6279 41.1669 32.6539 41.2722 32.6539H46.2713C47.8675 32.6713 49.5426 32.6626 51.2967 32.6279C51.2616 32.1248 51.1915 31.5957 51.0862 31.0405C50.981 30.4854 50.8757 29.9042 50.7705 29.297C50.6652 28.6725 50.5688 28.0306 50.4811 27.3713C50.4109 26.7121 50.3758 26.0268 50.3758 25.3156C50.3758 24.7257 50.4284 24.3527 50.5337 24.1966C50.6389 24.0405 50.753 23.945 50.8757 23.9103C51.0161 23.8756 51.1388 23.8323 51.2441 23.7802C51.3493 23.7108 51.4107 23.4853 51.4283 23.1036C51.4283 22.722 51.2266 22.5311 50.8231 22.5311C50.2267 22.5311 49.797 22.7393 49.5339 23.1557C49.2883 23.5721 49.1129 24.0925 49.0076 24.717C48.9024 25.3416 48.8322 26.0182 48.7972 26.7468C48.7621 27.4581 48.6656 28.126 48.5077 28.7505C48.3674 29.3751 48.1218 29.8955 47.771 30.3119C47.4202 30.7282 46.8764 30.9364 46.1397 30.9364C46.0169 30.9364 45.8591 30.9191 45.6661 30.8844C45.4732 30.8497 45.2802 30.7976 45.0873 30.7282C44.9119 30.6415 44.754 30.5461 44.6137 30.442C44.4734 30.3206 44.4032 30.1818 44.4032 30.0256L44.3769 25.2115C44.3769 24.9512 44.4207 24.7257 44.5084 24.5349C44.6137 24.3267 44.8154 24.1792 45.1136 24.0925C44.8856 23.9884 44.7014 23.7716 44.5611 23.4419C44.4383 23.1123 44.3769 22.8 44.3769 22.5051C44.3769 21.6551 44.3944 20.8137 44.4295 19.9809C44.4646 19.1309 44.4734 18.2808 44.4558 17.4307C44.4558 17.1532 44.5084 16.945 44.6137 16.8062C44.7365 16.6501 44.868 16.5373 45.0083 16.4679C45.1662 16.3812 45.2978 16.3118 45.403 16.2597C45.5258 16.1903 45.5872 16.0949 45.5872 15.9735H44.64C44.219 15.9735 43.7717 15.9822 43.2981 15.9995H41.1406ZM43.6665 24.0665C43.6665 24.3267 43.5349 24.5002 43.2718 24.5869C43.2192 25.9054 43.1841 26.9029 43.1666 27.5795C43.149 28.2388 43.1315 29.1495 43.1139 30.3119C43.0789 29.4271 43.0438 28.4903 43.0087 27.5014C42.9736 26.4952 42.9561 25.5237 42.9561 24.5869C42.8508 24.5522 42.7544 24.4915 42.6666 24.4048C42.5965 24.3007 42.5614 24.1879 42.5614 24.0665C42.5614 23.945 42.5965 23.841 42.6666 23.7542C42.7368 23.6501 42.8333 23.5807 42.9561 23.546C42.9561 22.4531 42.9824 21.3775 43.035 20.3192C43.0876 19.2436 43.1139 18.1333 43.1139 16.9884C43.149 17.7343 43.1753 18.4109 43.1929 19.0181C43.228 19.6253 43.2455 20.1891 43.2455 20.7096C43.263 21.23 43.2718 21.7245 43.2718 22.1929V23.546C43.3946 23.5807 43.4911 23.6501 43.5612 23.7542C43.6314 23.841 43.6665 23.945 43.6665 24.0665Z"/>
<path fill-rule="evenodd" clip-rule="evenodd" d="M62.9951 22.6613C63.0127 22.401 63.0214 22.1755 63.0214 21.9847C63.0214 20.5795 62.8285 19.4778 62.4426 18.6798C62.0567 17.8644 61.5129 17.2486 60.8113 16.8322C60.1097 16.4159 59.2589 16.1556 58.2591 16.0515C57.2768 15.9475 56.1893 15.8954 54.9965 15.8954C54.7509 15.8954 54.5054 15.9301 54.2598 15.9995C54.0318 16.0689 53.795 16.1383 53.5494 16.2077C53.9353 16.6067 54.2072 17.0924 54.3651 17.6649C54.5229 18.2374 54.6194 18.8446 54.6545 19.4865C54.6896 20.1111 54.6896 20.7443 54.6545 21.3862C54.6194 22.028 54.6018 22.6179 54.6018 23.1557C54.6018 23.4506 54.5229 23.7542 54.3651 24.0665C54.2072 24.3614 53.9616 24.5349 53.6283 24.5869C54.0493 24.9859 54.33 25.4196 54.4703 25.8881C54.6106 26.3565 54.6808 26.8682 54.6808 27.4234C54.6808 28.0826 54.6632 28.7505 54.6282 29.4271C54.6106 30.0864 54.6018 30.7456 54.6018 31.4048C54.6018 31.6997 54.4791 31.9426 54.2335 32.1335C54.0055 32.3069 53.7687 32.4544 53.5231 32.5758C53.681 32.5758 53.8388 32.5672 53.9967 32.5498C54.1546 32.5325 54.3037 32.5238 54.444 32.5238C55.1456 32.5238 55.8472 32.5585 56.5489 32.6279C57.2505 32.6799 57.9521 32.706 58.6538 32.706C59.6711 32.706 60.4605 32.5064 61.0218 32.1074C61.5831 31.7084 61.9953 31.214 62.2584 30.6242C62.5391 30.0343 62.7145 29.3837 62.7846 28.6725C62.8723 27.9612 62.9337 27.3019 62.9688 26.6948C63.0214 26.0876 63.0916 25.5671 63.1793 25.1334C63.2845 24.6997 63.495 24.4568 63.8108 24.4048C63.5477 24.3354 63.3547 24.2053 63.2319 24.0144C63.1267 23.8236 63.0565 23.6154 63.0214 23.3899C62.9863 23.147 62.9776 22.9041 62.9951 22.6613ZM59.7588 30.7022C59.2502 31.0665 58.6011 31.2487 57.8118 31.2487C57.7241 31.2487 57.5926 31.24 57.4171 31.2227C57.2593 31.2053 57.1803 31.1186 57.1803 30.9624C57.1803 30.1818 57.1716 29.4011 57.154 28.6204C57.154 27.8224 57.1453 27.033 57.1277 26.2524L56.9962 17.6649L58.3643 17.769C58.7853 17.8037 59.1274 17.9425 59.3905 18.1854C59.6536 18.4283 59.8553 18.7232 59.9956 19.0702C60.1535 19.3998 60.2588 19.7641 60.3114 20.1631C60.3815 20.5448 60.4166 20.9004 60.4166 21.23C60.4517 22.5138 60.478 23.7889 60.4956 25.0553C60.5131 26.3218 60.5219 27.5969 60.5219 28.8806C60.5219 29.7307 60.2675 30.3379 59.7588 30.7022ZM56.0753 24.9252C56.0051 25.012 55.9174 25.0727 55.8122 25.1074C55.8122 25.8707 55.7859 26.6254 55.7332 27.3713C55.6806 28.1173 55.6543 28.872 55.6543 29.6353C55.6192 29.5312 55.5929 29.271 55.5754 28.8546C55.5578 28.4209 55.5403 27.9525 55.5227 27.4494C55.5052 26.9463 55.4964 26.4692 55.4964 26.0182V25.1074C55.2333 25.0206 55.1018 24.8472 55.1018 24.5869C55.1018 24.4655 55.1368 24.3614 55.207 24.2747C55.2772 24.1706 55.3736 24.1012 55.4964 24.0665C55.4964 22.5051 55.5491 20.9264 55.6543 19.3304C55.6543 20.1111 55.6806 20.9004 55.7332 21.6984C55.7859 22.4791 55.8122 23.2685 55.8122 24.0665C55.9349 24.1012 56.0314 24.1706 56.1016 24.2747C56.1717 24.3614 56.2068 24.4655 56.2068 24.5869C56.2068 24.7084 56.163 24.8211 56.0753 24.9252Z"/>
<path fill-rule="evenodd" clip-rule="evenodd" d="M74.2633 24.613C74.4036 24.0925 74.6492 23.8063 75 23.7542C74.7895 23.6328 74.6316 23.4593 74.5264 23.2338C74.4212 23.0082 74.3422 22.774 74.2896 22.5311C74.2545 22.2883 74.237 22.0367 74.237 21.7765C74.2545 21.5163 74.2633 21.2821 74.2633 21.0739C74.2633 20.8484 74.2545 20.5795 74.237 20.2672C74.237 19.9549 74.2194 19.6427 74.1843 19.3304C74.1493 19.0008 74.0966 18.6885 74.0265 18.3936C73.9739 18.0813 73.9037 17.8211 73.816 17.6129C73.6932 17.3353 73.5003 17.0751 73.2371 16.8322C72.974 16.5893 72.6671 16.3812 72.3163 16.2077C71.983 16.0342 71.6146 15.8954 71.2112 15.7913C70.8077 15.6872 70.4131 15.6352 70.0272 15.6352C69.501 15.6352 69.0098 15.7393 68.5538 15.9475C68.0977 16.1556 67.6855 16.4332 67.3171 16.7802C66.9488 17.1271 66.6418 17.5262 66.3962 17.9772C66.1682 18.4109 66.0191 18.8707 65.949 19.3564C65.8788 19.7381 65.8525 20.1544 65.87 20.6055C65.8876 21.0565 65.8876 21.4902 65.87 21.9066C65.87 22.323 65.8262 22.7046 65.7385 23.0516C65.6683 23.3986 65.5017 23.6501 65.2386 23.8063C65.4841 23.9103 65.6595 24.1272 65.7648 24.4568C65.87 24.7864 65.9402 25.1854 65.9753 25.6539C66.0103 26.1049 66.0279 26.6167 66.0279 27.1892C66.0454 27.7443 66.0717 28.2995 66.1068 28.8546C66.1594 29.3924 66.2471 29.9129 66.3699 30.416C66.5103 30.9017 66.7207 31.3094 67.0014 31.639C67.3873 32.0901 67.8784 32.4024 68.4748 32.5758C69.0888 32.7493 69.6764 32.8361 70.2377 32.8361C70.6411 32.8361 71.0446 32.7667 71.448 32.6279C71.869 32.4891 72.2461 32.2896 72.5794 32.0294C72.9302 31.7691 73.2196 31.4569 73.4476 31.0926C73.6757 30.7282 73.816 30.3292 73.8686 29.8955C73.9037 29.5486 73.9212 29.0455 73.9212 28.3862C73.9212 27.7096 73.9388 27.0417 73.9739 26.3825C74.0265 25.7059 74.123 25.1161 74.2633 24.613ZM71.5006 23.2598C71.4129 23.4853 71.2638 23.6501 71.0533 23.7542C71.2813 23.9624 71.4305 24.1619 71.5006 24.3527C71.5708 24.5436 71.6059 24.7864 71.6059 25.0814V25.9401C71.6234 26.2871 71.6234 26.6601 71.6059 27.0591C71.5883 27.4581 71.5532 27.8658 71.5006 28.2821C71.448 28.6985 71.3603 29.0715 71.2375 29.4011C71.1323 29.7307 70.9744 29.9996 70.7639 30.2078C70.5534 30.416 70.2903 30.5201 69.9746 30.5201C69.4834 30.5201 69.1238 30.3119 68.8958 29.8955C68.6678 29.4618 68.5187 28.9587 68.4485 28.3862C68.3784 27.8137 68.352 27.2412 68.3696 26.6687C68.4047 26.0789 68.4222 25.6278 68.4222 25.3156C68.4222 25.0553 68.4573 24.7864 68.5275 24.5089C68.6152 24.2139 68.8344 23.9711 69.1852 23.7802C68.8344 23.6067 68.6239 23.3292 68.5538 22.9475C68.5011 22.5658 68.4748 22.2189 68.4748 21.9066C68.4748 21.5943 68.4661 21.1953 68.4485 20.7096C68.4485 20.2238 68.4924 19.7554 68.5801 19.3044C68.6853 18.8533 68.8607 18.4716 69.1063 18.1594C69.3519 17.8298 69.729 17.6649 70.2377 17.6649C70.606 17.6649 70.8867 17.7951 71.0796 18.0553C71.2726 18.3155 71.4129 18.6278 71.5006 18.9921C71.5883 19.3391 71.6322 19.7034 71.6322 20.085C71.6497 20.4493 71.6585 20.7443 71.6585 20.9698C71.6585 21.178 71.6672 21.4209 71.6848 21.6984C71.7023 21.9587 71.6936 22.2276 71.6585 22.5051C71.6409 22.7654 71.5883 23.0169 71.5006 23.2598ZM67.6855 24.0144C67.6855 24.2747 67.5539 24.4481 67.2908 24.5349C67.2382 25.8534 67.2207 26.7815 67.2382 27.3193C67.2733 27.8397 67.2382 28.8199 67.133 30.2598C67.133 29.2189 67.1066 28.2388 67.054 27.3193C67.0014 26.3998 66.9751 25.4717 66.9751 24.5349C66.8698 24.5002 66.7734 24.4395 66.6857 24.3527C66.6155 24.2486 66.5804 24.1359 66.5804 24.0144C66.5804 23.893 66.6155 23.7889 66.6857 23.7022C66.7558 23.5981 66.8523 23.5287 66.9751 23.494C66.9751 23.0776 66.9926 22.4704 67.0277 21.6724C67.0803 20.8744 67.1154 20.0156 67.133 19.0962C67.168 19.8422 67.1944 20.458 67.2119 20.9438C67.2294 21.4295 67.2382 21.8372 67.2382 22.1668C67.2557 22.4791 67.2645 22.7393 67.2645 22.9475C67.2645 23.1383 67.2733 23.3205 67.2908 23.494C67.4136 23.5287 67.5101 23.5981 67.5802 23.7022C67.6504 23.7889 67.6855 23.893 67.6855 24.0144ZM73.3161 23.8843C73.3161 24.1445 73.1845 24.318 72.9214 24.4048C72.8688 25.7232 72.8512 26.6514 72.8688 27.1892C72.9039 27.7096 72.8688 28.6898 72.7635 30.1297C72.7635 29.0888 72.7372 28.1086 72.6846 27.1892C72.632 26.2697 72.6057 25.3416 72.6057 24.4048C72.5004 24.3701 72.404 24.3094 72.3163 24.2226C72.2461 24.1185 72.211 24.0058 72.211 23.8843C72.211 23.7629 72.2461 23.6588 72.3163 23.5721C72.3864 23.468 72.4829 23.3986 72.6057 23.3639C72.6057 22.9475 72.6232 22.3403 72.6583 21.5423C72.7109 20.7443 72.746 19.8855 72.7635 18.9661C72.7986 19.712 72.8249 20.3279 72.8425 20.8137C72.86 21.2994 72.8688 21.7071 72.8688 22.0367C72.8863 22.349 72.8951 22.6092 72.8951 22.8174C72.8951 23.0082 72.9039 23.1904 72.9214 23.3639C73.0442 23.3986 73.1407 23.468 73.2108 23.5721C73.281 23.6588 73.3161 23.7629 73.3161 23.8843Z"/>
</mask>
<path fill-rule="evenodd" clip-rule="evenodd" d="M23.5746 13.0452C22.5877 12.1357 21.6345 11.3372 20.7149 10.6495C20.7374 9.91746 20.9504 9.15216 21.3541 8.35358C21.7579 7.53282 22.1952 6.70096 22.6662 5.85802C23.1372 5.01508 23.5858 4.18322 24.012 3.36246C24.4381 2.51952 24.696 1.73203 24.7858 1C24.3372 1.04437 23.911 1.15528 23.5073 1.33274C23.1036 1.5102 22.6774 1.59893 22.2289 1.59893C21.5784 1.59893 20.928 1.55457 20.2776 1.46584C19.6496 1.35492 19.0103 1.29947 18.3599 1.29947C17.6422 1.29947 16.9805 1.44366 16.3749 1.73203C15.7694 1.99822 15.2423 2.37533 14.7937 2.86335C14.3676 3.32919 14.0311 3.88376 13.7844 4.52706C13.5377 5.14817 13.4143 5.80256 13.4143 6.49023C13.4143 7.33317 13.5377 8.0652 13.7844 8.68632C14.0536 9.28525 14.4012 9.82873 14.8274 10.3168C15.2535 10.8048 15.7357 11.2706 16.274 11.7143C16.8347 12.1357 17.4067 12.5794 17.9898 13.0452C17.945 13.3558 17.8665 13.6663 17.7543 13.9769C17.6646 14.2653 17.5525 14.5647 17.4179 14.8753C17.3057 15.1637 17.2048 15.4631 17.1151 15.7737C17.0254 16.0621 16.9805 16.3726 16.9805 16.7054C16.9805 17.149 17.1039 17.5594 17.3506 17.9365C17.5973 18.2914 17.9674 18.4689 18.4608 18.4689C18.8645 18.4689 19.201 18.3247 19.4701 18.0363C19.7617 17.748 19.9075 17.4041 19.9075 17.0048C19.9075 16.6721 19.8066 16.3726 19.6047 16.1064C19.5598 16.2174 19.4813 16.3283 19.3692 16.4392C19.2571 16.5501 19.1337 16.6056 18.9991 16.6056C18.887 16.6056 18.786 16.5501 18.6963 16.4392C18.629 16.3283 18.5954 16.2174 18.5954 16.1064C18.5954 15.685 18.6739 15.2746 18.8309 14.8753C19.0103 14.476 19.201 14.0989 19.4028 13.744C20.2103 14.2764 21.0065 14.8642 21.7915 15.5075C22.5765 16.1508 23.283 16.8718 23.911 17.6703C24.5615 18.4467 25.0773 19.2897 25.4586 20.1992C25.8623 21.0865 26.0642 22.0403 26.0642 23.0607C26.0642 24.8575 25.795 26.4769 25.2568 27.9188C24.7409 29.3828 23.9783 30.6251 22.969 31.6455C21.9597 32.6659 20.7261 33.4534 19.2683 34.0079C17.8328 34.5625 16.1955 34.8398 14.3564 34.8398C12.7863 34.8398 11.3621 34.5403 10.0837 33.9414C8.80523 33.3646 7.71743 32.566 6.82028 31.5456C5.92312 30.5474 5.22783 29.3717 4.7344 28.0186C4.26339 26.6876 4.02789 25.279 4.02789 23.7928C4.02789 22.1512 4.37554 20.6206 5.07083 19.2009C5.78855 17.7591 6.71935 16.4614 7.86322 15.3079L5.47455 13.2781C4.08396 14.6757 2.98495 16.2728 2.17751 18.0696C1.3925 19.8664 1 21.7409 1 23.6929C1 25.5563 1.33643 27.3087 2.0093 28.9503C2.68216 30.614 3.61296 32.0669 4.80168 33.3092C5.99041 34.5514 7.39221 35.5274 9.00708 36.2373C10.6444 36.9693 12.4275 37.3353 14.3564 37.3353C16.532 37.3353 18.5281 36.9804 20.3448 36.2706C22.1616 35.5829 23.7204 34.6069 25.0213 33.3424C26.3446 32.078 27.3651 30.5474 28.0828 28.7506C28.8005 26.976 29.1594 25.0017 29.1594 22.8278C29.1594 21.6078 28.8902 20.421 28.3519 19.2675C27.8136 18.0918 27.1296 16.9827 26.2997 15.9401C25.4923 14.8975 24.5839 13.9325 23.5746 13.0452ZM18.0235 3.26264C18.2926 3.08518 18.5954 2.99645 18.9318 2.99645C19.201 2.99645 19.4141 3.06299 19.5711 3.19609C19.7505 3.32919 19.8851 3.49556 19.9748 3.6952C20.0869 3.89485 20.1542 4.11668 20.1766 4.36069C20.2215 4.6047 20.2439 4.82652 20.2439 5.02617C20.2439 5.86911 20.1318 6.71206 19.9075 7.555C19.7056 8.37576 19.4813 9.19652 19.2346 10.0173C18.8309 9.83982 18.472 9.6069 18.158 9.31853C17.844 9.00797 17.5749 8.66414 17.3506 8.28703C17.1487 7.90992 16.9917 7.51064 16.8796 7.08916C16.7899 6.64551 16.745 6.21294 16.745 5.79147C16.745 5.5031 16.7899 5.19254 16.8796 4.8598C16.9917 4.52706 17.1375 4.22759 17.317 3.9614C17.5188 3.67302 17.7543 3.4401 18.0235 3.26264ZM26.2661 18.3025C27.1856 19.9219 27.6454 21.7852 27.6454 23.8926C27.623 22.8278 27.466 21.8296 27.1744 20.8979C26.9053 19.9662 26.524 19.1011 26.0306 18.3025C25.5371 17.4818 24.954 16.7276 24.2811 16.0399C23.6082 15.3301 22.8793 14.6757 22.0943 14.0767C22.0494 14.0989 21.9822 14.1211 21.8924 14.1433C21.8251 14.1655 21.7691 14.1765 21.7242 14.1765C21.4775 14.1765 21.2869 14.0878 21.1523 13.9104C21.0177 13.7329 20.9841 13.5332 21.0514 13.3114C20.5803 13.023 19.9972 12.6459 19.3019 12.1801C18.6066 11.7143 17.9338 11.193 17.2833 10.6162C16.6553 10.0395 16.117 9.42944 15.6684 8.78614C15.2423 8.14284 15.0517 7.48845 15.0965 6.82297C15.0965 7.15571 15.1974 7.51063 15.3993 7.88774C15.6012 8.26485 15.8479 8.64195 16.1394 9.01906C16.4535 9.39617 16.7899 9.76218 17.1487 10.1171C17.5076 10.4498 17.844 10.7382 18.158 10.9822C18.3823 11.1597 18.7524 11.4259 19.2683 11.7808C19.8066 12.1357 20.4682 12.535 21.2532 12.9787C21.2981 12.9565 21.3766 12.9232 21.4887 12.8789C21.6009 12.8345 21.6794 12.8123 21.7242 12.8123C21.9709 12.8123 22.1616 12.9121 22.2962 13.1118C22.4307 13.3114 22.4532 13.5332 22.3634 13.7773C24.068 15.1748 25.3689 16.6832 26.2661 18.3025Z" fill="black"/>
<path fill-rule="evenodd" clip-rule="evenodd" d="M39.3331 24.613C39.4735 24.0925 39.719 23.8063 40.0699 23.7542C39.8594 23.6328 39.7015 23.4593 39.5963 23.2338C39.491 23.0082 39.4121 22.774 39.3595 22.5311C39.3244 22.2883 39.3068 22.0367 39.3068 21.7765C39.3244 21.5163 39.3331 21.2821 39.3331 21.0739C39.3331 20.8484 39.3244 20.5795 39.3068 20.2672C39.3068 19.9549 39.2893 19.6427 39.2542 19.3304C39.2191 19.0008 39.1665 18.6885 39.0963 18.3936C39.0437 18.0813 38.9736 17.8211 38.8859 17.6129C38.7631 17.3353 38.5701 17.0751 38.307 16.8322C38.0439 16.5893 37.7369 16.3812 37.3861 16.2077C37.0528 16.0342 36.6845 15.8954 36.2811 15.7913C35.8776 15.6872 35.4829 15.6352 35.097 15.6352C34.5708 15.6352 34.0797 15.7393 33.6236 15.9475C33.1676 16.1556 32.7554 16.4332 32.387 16.7802C32.0186 17.1271 31.7117 17.5262 31.4661 17.9772C31.2381 18.4109 31.089 18.8707 31.0188 19.3564C30.9487 19.7381 30.9223 20.1544 30.9399 20.6055C30.9574 21.0565 30.9574 21.4902 30.9399 21.9066C30.9399 22.323 30.896 22.7046 30.8083 23.0516C30.7382 23.3986 30.5715 23.6501 30.3084 23.8063C30.554 23.9103 30.7294 24.1272 30.8346 24.4568C30.9399 24.7864 31.01 25.1854 31.0451 25.6539C31.0802 26.1049 31.0978 26.6167 31.0978 27.1892C31.1153 27.7443 31.1416 28.2995 31.1767 28.8546C31.2293 29.3924 31.317 29.9129 31.4398 30.416C31.5801 30.9017 31.7906 31.3094 32.0713 31.639C32.4572 32.0901 32.9483 32.4024 33.5447 32.5758C34.1586 32.7493 34.7462 32.8361 35.3075 32.8361C35.711 32.8361 36.1144 32.7667 36.5179 32.6279C36.9388 32.4891 37.316 32.2896 37.6492 32.0294C38 31.7691 38.2895 31.4569 38.5175 31.0926C38.7455 30.7282 38.8859 30.3292 38.9385 29.8955C38.9736 29.5486 38.9911 29.0455 38.9911 28.3862C38.9911 27.7096 39.0086 27.0417 39.0437 26.3825C39.0963 25.7059 39.1928 25.1161 39.3331 24.613ZM36.5705 23.2598C36.4828 23.4853 36.3337 23.6501 36.1232 23.7542C36.3512 23.9624 36.5003 24.1619 36.5705 24.3527C36.6406 24.5436 36.6757 24.7864 36.6757 25.0814V25.9401C36.6933 26.2871 36.6933 26.6601 36.6757 27.0591C36.6582 27.4581 36.6231 27.8658 36.5705 28.2821C36.5179 28.6985 36.4302 29.0715 36.3074 29.4011C36.2021 29.7307 36.0443 29.9996 35.8338 30.2078C35.6233 30.416 35.3602 30.5201 35.0444 30.5201C34.5533 30.5201 34.1937 30.3119 33.9657 29.8955C33.7376 29.4618 33.5885 28.9587 33.5184 28.3862C33.4482 27.8137 33.4219 27.2412 33.4394 26.6687C33.4745 26.0789 33.4921 25.6278 33.4921 25.3156C33.4921 25.0553 33.5272 24.7864 33.5973 24.5089C33.685 24.2139 33.9043 23.9711 34.2551 23.7802C33.9043 23.6067 33.6938 23.3292 33.6236 22.9475C33.571 22.5658 33.5447 22.2189 33.5447 21.9066C33.5447 21.5943 33.5359 21.1953 33.5184 20.7096C33.5184 20.2238 33.5622 19.7554 33.6499 19.3044C33.7552 18.8533 33.9306 18.4716 34.1762 18.1594C34.4217 17.8298 34.7989 17.6649 35.3075 17.6649C35.6759 17.6649 35.9565 17.7951 36.1495 18.0553C36.3424 18.3155 36.4828 18.6278 36.5705 18.9921C36.6582 19.3391 36.702 19.7034 36.702 20.085C36.7196 20.4493 36.7283 20.7443 36.7283 20.9698C36.7283 21.178 36.7371 21.4209 36.7547 21.6984C36.7722 21.9587 36.7634 22.2276 36.7283 22.5051C36.7108 22.7654 36.6582 23.0169 36.5705 23.2598ZM32.7554 24.0144C32.7554 24.2747 32.6238 24.4481 32.3607 24.5349C32.3081 25.8534 32.2905 26.7815 32.3081 27.3193C32.3431 27.8397 32.3081 28.8199 32.2028 30.2598C32.2028 29.2189 32.1765 28.2388 32.1239 27.3193C32.0713 26.3998 32.045 25.4717 32.045 24.5349C31.9397 24.5002 31.8432 24.4395 31.7555 24.3527C31.6854 24.2486 31.6503 24.1359 31.6503 24.0144C31.6503 23.893 31.6854 23.7889 31.7555 23.7022C31.8257 23.5981 31.9222 23.5287 32.045 23.494C32.045 23.0776 32.0625 22.4704 32.0976 21.6724C32.1502 20.8744 32.1853 20.0156 32.2028 19.0962C32.2379 19.8422 32.2642 20.458 32.2818 20.9438C32.2993 21.4295 32.3081 21.8372 32.3081 22.1668C32.3256 22.4791 32.3344 22.7393 32.3344 22.9475C32.3344 23.1383 32.3431 23.3205 32.3607 23.494C32.4835 23.5287 32.5799 23.5981 32.6501 23.7022C32.7203 23.7889 32.7554 23.893 32.7554 24.0144ZM38.3859 23.8843C38.3859 24.1445 38.2544 24.318 37.9913 24.4048C37.9387 25.7232 37.9211 26.6514 37.9387 27.1892C37.9737 27.7096 37.9387 28.6898 37.8334 30.1297C37.8334 29.0888 37.8071 28.1086 37.7545 27.1892C37.7019 26.2697 37.6755 25.3416 37.6755 24.4048C37.5703 24.3701 37.4738 24.3094 37.3861 24.2226C37.316 24.1185 37.2809 24.0058 37.2809 23.8843C37.2809 23.7629 37.316 23.6588 37.3861 23.5721C37.4563 23.468 37.5528 23.3986 37.6755 23.3639C37.6755 22.9475 37.6931 22.3403 37.7282 21.5423C37.7808 20.7443 37.8159 19.8855 37.8334 18.9661C37.8685 19.712 37.8948 20.3279 37.9123 20.8137C37.9299 21.2994 37.9387 21.7071 37.9387 22.0367C37.9562 22.349 37.965 22.6092 37.965 22.8174C37.965 23.0082 37.9737 23.1904 37.9913 23.3639C38.1141 23.3986 38.2105 23.468 38.2807 23.5721C38.3509 23.6588 38.3859 23.7629 38.3859 23.8843Z" fill="black"/>
<path fill-rule="evenodd" clip-rule="evenodd" d="M41.1406 15.9995C41.4388 16.173 41.6493 16.5546 41.7721 17.1445C41.8949 17.717 41.965 18.3502 41.9826 19.0441C42.0176 19.7381 42.0176 20.4147 41.9826 21.0739C41.965 21.7331 41.9562 22.2189 41.9562 22.5311V22.9996C41.9562 23.1557 41.9299 23.3118 41.8773 23.468C41.8422 23.6067 41.7721 23.7369 41.6668 23.8583C41.5616 23.9797 41.4037 24.0665 41.1932 24.1185C41.3511 24.1879 41.4651 24.2486 41.5353 24.3007C41.623 24.3527 41.6844 24.4134 41.7194 24.4828C41.7721 24.5349 41.7984 24.6043 41.7984 24.691C41.8159 24.7778 41.8335 24.8905 41.851 25.0293C41.9563 25.7232 42.0089 26.3912 42.0089 27.033V29.0108C42.0089 29.6179 41.9738 30.2078 41.9036 30.7803C41.8335 31.3354 41.5528 31.8385 41.0617 32.2896C40.9213 32.4284 40.895 32.5238 40.9827 32.5758C41.0704 32.6279 41.1669 32.6539 41.2722 32.6539H46.2713C47.8675 32.6713 49.5426 32.6626 51.2967 32.6279C51.2616 32.1248 51.1915 31.5957 51.0862 31.0405C50.981 30.4854 50.8757 29.9042 50.7705 29.297C50.6652 28.6725 50.5688 28.0306 50.4811 27.3713C50.4109 26.7121 50.3758 26.0268 50.3758 25.3156C50.3758 24.7257 50.4284 24.3527 50.5337 24.1966C50.6389 24.0405 50.753 23.945 50.8757 23.9103C51.0161 23.8756 51.1388 23.8323 51.2441 23.7802C51.3493 23.7108 51.4107 23.4853 51.4283 23.1036C51.4283 22.722 51.2266 22.5311 50.8231 22.5311C50.2267 22.5311 49.797 22.7393 49.5339 23.1557C49.2883 23.5721 49.1129 24.0925 49.0076 24.717C48.9024 25.3416 48.8322 26.0182 48.7972 26.7468C48.7621 27.4581 48.6656 28.126 48.5077 28.7505C48.3674 29.3751 48.1218 29.8955 47.771 30.3119C47.4202 30.7282 46.8764 30.9364 46.1397 30.9364C46.0169 30.9364 45.8591 30.9191 45.6661 30.8844C45.4732 30.8497 45.2802 30.7976 45.0873 30.7282C44.9119 30.6415 44.754 30.5461 44.6137 30.442C44.4734 30.3206 44.4032 30.1818 44.4032 30.0256L44.3769 25.2115C44.3769 24.9512 44.4207 24.7257 44.5084 24.5349C44.6137 24.3267 44.8154 24.1792 45.1136 24.0925C44.8856 23.9884 44.7014 23.7716 44.5611 23.4419C44.4383 23.1123 44.3769 22.8 44.3769 22.5051C44.3769 21.6551 44.3944 20.8137 44.4295 19.9809C44.4646 19.1309 44.4734 18.2808 44.4558 17.4307C44.4558 17.1532 44.5084 16.945 44.6137 16.8062C44.7365 16.6501 44.868 16.5373 45.0083 16.4679C45.1662 16.3812 45.2978 16.3118 45.403 16.2597C45.5258 16.1903 45.5872 16.0949 45.5872 15.9735H44.64C44.219 15.9735 43.7717 15.9822 43.2981 15.9995H41.1406ZM43.6665 24.0665C43.6665 24.3267 43.5349 24.5002 43.2718 24.5869C43.2192 25.9054 43.1841 26.9029 43.1666 27.5795C43.149 28.2388 43.1315 29.1495 43.1139 30.3119C43.0789 29.4271 43.0438 28.4903 43.0087 27.5014C42.9736 26.4952 42.9561 25.5237 42.9561 24.5869C42.8508 24.5522 42.7544 24.4915 42.6666 24.4048C42.5965 24.3007 42.5614 24.1879 42.5614 24.0665C42.5614 23.945 42.5965 23.841 42.6666 23.7542C42.7368 23.6501 42.8333 23.5807 42.9561 23.546C42.9561 22.4531 42.9824 21.3775 43.035 20.3192C43.0876 19.2436 43.1139 18.1333 43.1139 16.9884C43.149 17.7343 43.1753 18.4109 43.1929 19.0181C43.228 19.6253 43.2455 20.1891 43.2455 20.7096C43.263 21.23 43.2718 21.7245 43.2718 22.1929V23.546C43.3946 23.5807 43.4911 23.6501 43.5612 23.7542C43.6314 23.841 43.6665 23.945 43.6665 24.0665Z" fill="black"/>
<path fill-rule="evenodd" clip-rule="evenodd" d="M62.9951 22.6613C63.0127 22.401 63.0214 22.1755 63.0214 21.9847C63.0214 20.5795 62.8285 19.4778 62.4426 18.6798C62.0567 17.8644 61.5129 17.2486 60.8113 16.8322C60.1097 16.4159 59.2589 16.1556 58.2591 16.0515C57.2768 15.9475 56.1893 15.8954 54.9965 15.8954C54.7509 15.8954 54.5054 15.9301 54.2598 15.9995C54.0318 16.0689 53.795 16.1383 53.5494 16.2077C53.9353 16.6067 54.2072 17.0924 54.3651 17.6649C54.5229 18.2374 54.6194 18.8446 54.6545 19.4865C54.6896 20.1111 54.6896 20.7443 54.6545 21.3862C54.6194 22.028 54.6018 22.6179 54.6018 23.1557C54.6018 23.4506 54.5229 23.7542 54.3651 24.0665C54.2072 24.3614 53.9616 24.5349 53.6283 24.5869C54.0493 24.9859 54.33 25.4196 54.4703 25.8881C54.6106 26.3565 54.6808 26.8682 54.6808 27.4234C54.6808 28.0826 54.6632 28.7505 54.6282 29.4271C54.6106 30.0864 54.6018 30.7456 54.6018 31.4048C54.6018 31.6997 54.4791 31.9426 54.2335 32.1335C54.0055 32.3069 53.7687 32.4544 53.5231 32.5758C53.681 32.5758 53.8388 32.5672 53.9967 32.5498C54.1546 32.5325 54.3037 32.5238 54.444 32.5238C55.1456 32.5238 55.8472 32.5585 56.5489 32.6279C57.2505 32.6799 57.9521 32.706 58.6538 32.706C59.6711 32.706 60.4605 32.5064 61.0218 32.1074C61.5831 31.7084 61.9953 31.214 62.2584 30.6242C62.5391 30.0343 62.7145 29.3837 62.7846 28.6725C62.8723 27.9612 62.9337 27.3019 62.9688 26.6948C63.0214 26.0876 63.0916 25.5671 63.1793 25.1334C63.2845 24.6997 63.495 24.4568 63.8108 24.4048C63.5477 24.3354 63.3547 24.2053 63.2319 24.0144C63.1267 23.8236 63.0565 23.6154 63.0214 23.3899C62.9863 23.147 62.9776 22.9041 62.9951 22.6613ZM59.7588 30.7022C59.2502 31.0665 58.6011 31.2487 57.8118 31.2487C57.7241 31.2487 57.5926 31.24 57.4171 31.2227C57.2593 31.2053 57.1803 31.1186 57.1803 30.9624C57.1803 30.1818 57.1716 29.4011 57.154 28.6204C57.154 27.8224 57.1453 27.033 57.1277 26.2524L56.9962 17.6649L58.3643 17.769C58.7853 17.8037 59.1274 17.9425 59.3905 18.1854C59.6536 18.4283 59.8553 18.7232 59.9956 19.0702C60.1535 19.3998 60.2588 19.7641 60.3114 20.1631C60.3815 20.5448 60.4166 20.9004 60.4166 21.23C60.4517 22.5138 60.478 23.7889 60.4956 25.0553C60.5131 26.3218 60.5219 27.5969 60.5219 28.8806C60.5219 29.7307 60.2675 30.3379 59.7588 30.7022ZM56.0753 24.9252C56.0051 25.012 55.9174 25.0727 55.8122 25.1074C55.8122 25.8707 55.7859 26.6254 55.7332 27.3713C55.6806 28.1173 55.6543 28.872 55.6543 29.6353C55.6192 29.5312 55.5929 29.271 55.5754 28.8546C55.5578 28.4209 55.5403 27.9525 55.5227 27.4494C55.5052 26.9463 55.4964 26.4692 55.4964 26.0182V25.1074C55.2333 25.0206 55.1018 24.8472 55.1018 24.5869C55.1018 24.4655 55.1368 24.3614 55.207 24.2747C55.2772 24.1706 55.3736 24.1012 55.4964 24.0665C55.4964 22.5051 55.5491 20.9264 55.6543 19.3304C55.6543 20.1111 55.6806 20.9004 55.7332 21.6984C55.7859 22.4791 55.8122 23.2685 55.8122 24.0665C55.9349 24.1012 56.0314 24.1706 56.1016 24.2747C56.1717 24.3614 56.2068 24.4655 56.2068 24.5869C56.2068 24.7084 56.163 24.8211 56.0753 24.9252Z" fill="black"/>
<path fill-rule="evenodd" clip-rule="evenodd" d="M74.2633 24.613C74.4036 24.0925 74.6492 23.8063 75 23.7542C74.7895 23.6328 74.6316 23.4593 74.5264 23.2338C74.4212 23.0082 74.3422 22.774 74.2896 22.5311C74.2545 22.2883 74.237 22.0367 74.237 21.7765C74.2545 21.5163 74.2633 21.2821 74.2633 21.0739C74.2633 20.8484 74.2545 20.5795 74.237 20.2672C74.237 19.9549 74.2194 19.6427 74.1843 19.3304C74.1493 19.0008 74.0966 18.6885 74.0265 18.3936C73.9739 18.0813 73.9037 17.8211 73.816 17.6129C73.6932 17.3353 73.5003 17.0751 73.2371 16.8322C72.974 16.5893 72.6671 16.3812 72.3163 16.2077C71.983 16.0342 71.6146 15.8954 71.2112 15.7913C70.8077 15.6872 70.4131 15.6352 70.0272 15.6352C69.501 15.6352 69.0098 15.7393 68.5538 15.9475C68.0977 16.1556 67.6855 16.4332 67.3171 16.7802C66.9488 17.1271 66.6418 17.5262 66.3962 17.9772C66.1682 18.4109 66.0191 18.8707 65.949 19.3564C65.8788 19.7381 65.8525 20.1544 65.87 20.6055C65.8876 21.0565 65.8876 21.4902 65.87 21.9066C65.87 22.323 65.8262 22.7046 65.7385 23.0516C65.6683 23.3986 65.5017 23.6501 65.2386 23.8063C65.4841 23.9103 65.6595 24.1272 65.7648 24.4568C65.87 24.7864 65.9402 25.1854 65.9753 25.6539C66.0103 26.1049 66.0279 26.6167 66.0279 27.1892C66.0454 27.7443 66.0717 28.2995 66.1068 28.8546C66.1594 29.3924 66.2471 29.9129 66.3699 30.416C66.5103 30.9017 66.7207 31.3094 67.0014 31.639C67.3873 32.0901 67.8784 32.4024 68.4748 32.5758C69.0888 32.7493 69.6764 32.8361 70.2377 32.8361C70.6411 32.8361 71.0446 32.7667 71.448 32.6279C71.869 32.4891 72.2461 32.2896 72.5794 32.0294C72.9302 31.7691 73.2196 31.4569 73.4476 31.0926C73.6757 30.7282 73.816 30.3292 73.8686 29.8955C73.9037 29.5486 73.9212 29.0455 73.9212 28.3862C73.9212 27.7096 73.9388 27.0417 73.9739 26.3825C74.0265 25.7059 74.123 25.1161 74.2633 24.613ZM71.5006 23.2598C71.4129 23.4853 71.2638 23.6501 71.0533 23.7542C71.2813 23.9624 71.4305 24.1619 71.5006 24.3527C71.5708 24.5436 71.6059 24.7864 71.6059 25.0814V25.9401C71.6234 26.2871 71.6234 26.6601 71.6059 27.0591C71.5883 27.4581 71.5532 27.8658 71.5006 28.2821C71.448 28.6985 71.3603 29.0715 71.2375 29.4011C71.1323 29.7307 70.9744 29.9996 70.7639 30.2078C70.5534 30.416 70.2903 30.5201 69.9746 30.5201C69.4834 30.5201 69.1238 30.3119 68.8958 29.8955C68.6678 29.4618 68.5187 28.9587 68.4485 28.3862C68.3784 27.8137 68.352 27.2412 68.3696 26.6687C68.4047 26.0789 68.4222 25.6278 68.4222 25.3156C68.4222 25.0553 68.4573 24.7864 68.5275 24.5089C68.6152 24.2139 68.8344 23.9711 69.1852 23.7802C68.8344 23.6067 68.6239 23.3292 68.5538 22.9475C68.5011 22.5658 68.4748 22.2189 68.4748 21.9066C68.4748 21.5943 68.4661 21.1953 68.4485 20.7096C68.4485 20.2238 68.4924 19.7554 68.5801 19.3044C68.6853 18.8533 68.8607 18.4716 69.1063 18.1594C69.3519 17.8298 69.729 17.6649 70.2377 17.6649C70.606 17.6649 70.8867 17.7951 71.0796 18.0553C71.2726 18.3155 71.4129 18.6278 71.5006 18.9921C71.5883 19.3391 71.6322 19.7034 71.6322 20.085C71.6497 20.4493 71.6585 20.7443 71.6585 20.9698C71.6585 21.178 71.6672 21.4209 71.6848 21.6984C71.7023 21.9587 71.6936 22.2276 71.6585 22.5051C71.6409 22.7654 71.5883 23.0169 71.5006 23.2598ZM67.6855 24.0144C67.6855 24.2747 67.5539 24.4481 67.2908 24.5349C67.2382 25.8534 67.2207 26.7815 67.2382 27.3193C67.2733 27.8397 67.2382 28.8199 67.133 30.2598C67.133 29.2189 67.1066 28.2388 67.054 27.3193C67.0014 26.3998 66.9751 25.4717 66.9751 24.5349C66.8698 24.5002 66.7734 24.4395 66.6857 24.3527C66.6155 24.2486 66.5804 24.1359 66.5804 24.0144C66.5804 23.893 66.6155 23.7889 66.6857 23.7022C66.7558 23.5981 66.8523 23.5287 66.9751 23.494C66.9751 23.0776 66.9926 22.4704 67.0277 21.6724C67.0803 20.8744 67.1154 20.0156 67.133 19.0962C67.168 19.8422 67.1944 20.458 67.2119 20.9438C67.2294 21.4295 67.2382 21.8372 67.2382 22.1668C67.2557 22.4791 67.2645 22.7393 67.2645 22.9475C67.2645 23.1383 67.2733 23.3205 67.2908 23.494C67.4136 23.5287 67.5101 23.5981 67.5802 23.7022C67.6504 23.7889 67.6855 23.893 67.6855 24.0144ZM73.3161 23.8843C73.3161 24.1445 73.1845 24.318 72.9214 24.4048C72.8688 25.7232 72.8512 26.6514 72.8688 27.1892C72.9039 27.7096 72.8688 28.6898 72.7635 30.1297C72.7635 29.0888 72.7372 28.1086 72.6846 27.1892C72.632 26.2697 72.6057 25.3416 72.6057 24.4048C72.5004 24.3701 72.404 24.3094 72.3163 24.2226C72.2461 24.1185 72.211 24.0058 72.211 23.8843C72.211 23.7629 72.2461 23.6588 72.3163 23.5721C72.3864 23.468 72.4829 23.3986 72.6057 23.3639C72.6057 22.9475 72.6232 22.3403 72.6583 21.5423C72.7109 20.7443 72.746 19.8855 72.7635 18.9661C72.7986 19.712 72.8249 20.3279 72.8425 20.8137C72.86 21.2994 72.8688 21.7071 72.8688 22.0367C72.8863 22.349 72.8951 22.6092 72.8951 22.8174C72.8951 23.0082 72.9039 23.1904 72.9214 23.3639C73.0442 23.3986 73.1407 23.468 73.2108 23.5721C73.281 23.6588 73.3161 23.7629 73.3161 23.8843Z" fill="black"/>
<path fill-rule="evenodd" clip-rule="evenodd" d="M23.5746 13.0452C22.5877 12.1357 21.6345 11.3372 20.7149 10.6495C20.7374 9.91746 20.9504 9.15216 21.3541 8.35358C21.7579 7.53282 22.1952 6.70096 22.6662 5.85802C23.1372 5.01508 23.5858 4.18322 24.012 3.36246C24.4381 2.51952 24.696 1.73203 24.7858 1C24.3372 1.04437 23.911 1.15528 23.5073 1.33274C23.1036 1.5102 22.6774 1.59893 22.2289 1.59893C21.5784 1.59893 20.928 1.55457 20.2776 1.46584C19.6496 1.35492 19.0103 1.29947 18.3599 1.29947C17.6422 1.29947 16.9805 1.44366 16.3749 1.73203C15.7694 1.99822 15.2423 2.37533 14.7937 2.86335C14.3676 3.32919 14.0311 3.88376 13.7844 4.52706C13.5377 5.14817 13.4143 5.80256 13.4143 6.49023C13.4143 7.33317 13.5377 8.0652 13.7844 8.68632C14.0536 9.28525 14.4012 9.82873 14.8274 10.3168C15.2535 10.8048 15.7357 11.2706 16.274 11.7143C16.8347 12.1357 17.4067 12.5794 17.9898 13.0452C17.945 13.3558 17.8665 13.6663 17.7543 13.9769C17.6646 14.2653 17.5525 14.5647 17.4179 14.8753C17.3057 15.1637 17.2048 15.4631 17.1151 15.7737C17.0254 16.0621 16.9805 16.3726 16.9805 16.7054C16.9805 17.149 17.1039 17.5594 17.3506 17.9365C17.5973 18.2914 17.9674 18.4689 18.4608 18.4689C18.8645 18.4689 19.201 18.3247 19.4701 18.0363C19.7617 17.748 19.9075 17.4041 19.9075 17.0048C19.9075 16.6721 19.8066 16.3726 19.6047 16.1064C19.5598 16.2174 19.4813 16.3283 19.3692 16.4392C19.2571 16.5501 19.1337 16.6056 18.9991 16.6056C18.887 16.6056 18.786 16.5501 18.6963 16.4392C18.629 16.3283 18.5954 16.2174 18.5954 16.1064C18.5954 15.685 18.6739 15.2746 18.8309 14.8753C19.0103 14.476 19.201 14.0989 19.4028 13.744C20.2103 14.2764 21.0065 14.8642 21.7915 15.5075C22.5765 16.1508 23.283 16.8718 23.911 17.6703C24.5615 18.4467 25.0773 19.2897 25.4586 20.1992C25.8623 21.0865 26.0642 22.0403 26.0642 23.0607C26.0642 24.8575 25.795 26.4769 25.2568 27.9188C24.7409 29.3828 23.9783 30.6251 22.969 31.6455C21.9597 32.6659 20.7261 33.4534 19.2683 34.0079C17.8328 34.5625 16.1955 34.8398 14.3564 34.8398C12.7863 34.8398 11.3621 34.5403 10.0837 33.9414C8.80523 33.3646 7.71743 32.566 6.82028 31.5456C5.92312 30.5474 5.22783 29.3717 4.7344 28.0186C4.26339 26.6876 4.02789 25.279 4.02789 23.7928C4.02789 22.1512 4.37554 20.6206 5.07083 19.2009C5.78855 17.7591 6.71935 16.4614 7.86322 15.3079L5.47455 13.2781C4.08396 14.6757 2.98495 16.2728 2.17751 18.0696C1.3925 19.8664 1 21.7409 1 23.6929C1 25.5563 1.33643 27.3087 2.0093 28.9503C2.68216 30.614 3.61296 32.0669 4.80168 33.3092C5.99041 34.5514 7.39221 35.5274 9.00708 36.2373C10.6444 36.9693 12.4275 37.3353 14.3564 37.3353C16.532 37.3353 18.5281 36.9804 20.3448 36.2706C22.1616 35.5829 23.7204 34.6069 25.0213 33.3424C26.3446 32.078 27.3651 30.5474 28.0828 28.7506C28.8005 26.976 29.1594 25.0017 29.1594 22.8278C29.1594 21.6078 28.8902 20.421 28.3519 19.2675C27.8136 18.0918 27.1296 16.9827 26.2997 15.9401C25.4923 14.8975 24.5839 13.9325 23.5746 13.0452ZM18.0235 3.26264C18.2926 3.08518 18.5954 2.99645 18.9318 2.99645C19.201 2.99645 19.4141 3.06299 19.5711 3.19609C19.7505 3.32919 19.8851 3.49556 19.9748 3.6952C20.0869 3.89485 20.1542 4.11668 20.1766 4.36069C20.2215 4.6047 20.2439 4.82652 20.2439 5.02617C20.2439 5.86911 20.1318 6.71206 19.9075 7.555C19.7056 8.37576 19.4813 9.19652 19.2346 10.0173C18.8309 9.83982 18.472 9.6069 18.158 9.31853C17.844 9.00797 17.5749 8.66414 17.3506 8.28703C17.1487 7.90992 16.9917 7.51064 16.8796 7.08916C16.7899 6.64551 16.745 6.21294 16.745 5.79147C16.745 5.5031 16.7899 5.19254 16.8796 4.8598C16.9917 4.52706 17.1375 4.22759 17.317 3.9614C17.5188 3.67302 17.7543 3.4401 18.0235 3.26264ZM26.2661 18.3025C27.1856 19.9219 27.6454 21.7852 27.6454 23.8926C27.623 22.8278 27.466 21.8296 27.1744 20.8979C26.9053 19.9662 26.524 19.1011 26.0306 18.3025C25.5371 17.4818 24.954 16.7276 24.2811 16.0399C23.6082 15.3301 22.8793 14.6757 22.0943 14.0767C22.0494 14.0989 21.9822 14.1211 21.8924 14.1433C21.8251 14.1655 21.7691 14.1765 21.7242 14.1765C21.4775 14.1765 21.2869 14.0878 21.1523 13.9104C21.0177 13.7329 20.9841 13.5332 21.0514 13.3114C20.5803 13.023 19.9972 12.6459 19.3019 12.1801C18.6066 11.7143 17.9338 11.193 17.2833 10.6162C16.6553 10.0395 16.117 9.42944 15.6684 8.78614C15.2423 8.14284 15.0517 7.48845 15.0965 6.82297C15.0965 7.15571 15.1974 7.51063 15.3993 7.88774C15.6012 8.26485 15.8479 8.64195 16.1394 9.01906C16.4535 9.39617 16.7899 9.76218 17.1487 10.1171C17.5076 10.4498 17.844 10.7382 18.158 10.9822C18.3823 11.1597 18.7524 11.4259 19.2683 11.7808C19.8066 12.1357 20.4682 12.535 21.2532 12.9787C21.2981 12.9565 21.3766 12.9232 21.4887 12.8789C21.6009 12.8345 21.6794 12.8123 21.7242 12.8123C21.9709 12.8123 22.1616 12.9121 22.2962 13.1118C22.4307 13.3114 22.4532 13.5332 22.3634 13.7773C24.068 15.1748 25.3689 16.6832 26.2661 18.3025Z" stroke="black" stroke-width="0.973684" mask="url(#path-1-outside-1)"/>
<path fill-rule="evenodd" clip-rule="evenodd" d="M39.3331 24.613C39.4735 24.0925 39.719 23.8063 40.0699 23.7542C39.8594 23.6328 39.7015 23.4593 39.5963 23.2338C39.491 23.0082 39.4121 22.774 39.3595 22.5311C39.3244 22.2883 39.3068 22.0367 39.3068 21.7765C39.3244 21.5163 39.3331 21.2821 39.3331 21.0739C39.3331 20.8484 39.3244 20.5795 39.3068 20.2672C39.3068 19.9549 39.2893 19.6427 39.2542 19.3304C39.2191 19.0008 39.1665 18.6885 39.0963 18.3936C39.0437 18.0813 38.9736 17.8211 38.8859 17.6129C38.7631 17.3353 38.5701 17.0751 38.307 16.8322C38.0439 16.5893 37.7369 16.3812 37.3861 16.2077C37.0528 16.0342 36.6845 15.8954 36.2811 15.7913C35.8776 15.6872 35.4829 15.6352 35.097 15.6352C34.5708 15.6352 34.0797 15.7393 33.6236 15.9475C33.1676 16.1556 32.7554 16.4332 32.387 16.7802C32.0186 17.1271 31.7117 17.5262 31.4661 17.9772C31.2381 18.4109 31.089 18.8707 31.0188 19.3564C30.9487 19.7381 30.9223 20.1544 30.9399 20.6055C30.9574 21.0565 30.9574 21.4902 30.9399 21.9066C30.9399 22.323 30.896 22.7046 30.8083 23.0516C30.7382 23.3986 30.5715 23.6501 30.3084 23.8063C30.554 23.9103 30.7294 24.1272 30.8346 24.4568C30.9399 24.7864 31.01 25.1854 31.0451 25.6539C31.0802 26.1049 31.0978 26.6167 31.0978 27.1892C31.1153 27.7443 31.1416 28.2995 31.1767 28.8546C31.2293 29.3924 31.317 29.9129 31.4398 30.416C31.5801 30.9017 31.7906 31.3094 32.0713 31.639C32.4572 32.0901 32.9483 32.4024 33.5447 32.5758C34.1586 32.7493 34.7462 32.8361 35.3075 32.8361C35.711 32.8361 36.1144 32.7667 36.5179 32.6279C36.9388 32.4891 37.316 32.2896 37.6492 32.0294C38 31.7691 38.2895 31.4569 38.5175 31.0926C38.7455 30.7282 38.8859 30.3292 38.9385 29.8955C38.9736 29.5486 38.9911 29.0455 38.9911 28.3862C38.9911 27.7096 39.0086 27.0417 39.0437 26.3825C39.0963 25.7059 39.1928 25.1161 39.3331 24.613ZM36.5705 23.2598C36.4828 23.4853 36.3337 23.6501 36.1232 23.7542C36.3512 23.9624 36.5003 24.1619 36.5705 24.3527C36.6406 24.5436 36.6757 24.7864 36.6757 25.0814V25.9401C36.6933 26.2871 36.6933 26.6601 36.6757 27.0591C36.6582 27.4581 36.6231 27.8658 36.5705 28.2821C36.5179 28.6985 36.4302 29.0715 36.3074 29.4011C36.2021 29.7307 36.0443 29.9996 35.8338 30.2078C35.6233 30.416 35.3602 30.5201 35.0444 30.5201C34.5533 30.5201 34.1937 30.3119 33.9657 29.8955C33.7376 29.4618 33.5885 28.9587 33.5184 28.3862C33.4482 27.8137 33.4219 27.2412 33.4394 26.6687C33.4745 26.0789 33.4921 25.6278 33.4921 25.3156C33.4921 25.0553 33.5272 24.7864 33.5973 24.5089C33.685 24.2139 33.9043 23.9711 34.2551 23.7802C33.9043 23.6067 33.6938 23.3292 33.6236 22.9475C33.571 22.5658 33.5447 22.2189 33.5447 21.9066C33.5447 21.5943 33.5359 21.1953 33.5184 20.7096C33.5184 20.2238 33.5622 19.7554 33.6499 19.3044C33.7552 18.8533 33.9306 18.4716 34.1762 18.1594C34.4217 17.8298 34.7989 17.6649 35.3075 17.6649C35.6759 17.6649 35.9565 17.7951 36.1495 18.0553C36.3424 18.3155 36.4828 18.6278 36.5705 18.9921C36.6582 19.3391 36.702 19.7034 36.702 20.085C36.7196 20.4493 36.7283 20.7443 36.7283 20.9698C36.7283 21.178 36.7371 21.4209 36.7547 21.6984C36.7722 21.9587 36.7634 22.2276 36.7283 22.5051C36.7108 22.7654 36.6582 23.0169 36.5705 23.2598ZM32.7554 24.0144C32.7554 24.2747 32.6238 24.4481 32.3607 24.5349C32.3081 25.8534 32.2905 26.7815 32.3081 27.3193C32.3431 27.8397 32.3081 28.8199 32.2028 30.2598C32.2028 29.2189 32.1765 28.2388 32.1239 27.3193C32.0713 26.3998 32.045 25.4717 32.045 24.5349C31.9397 24.5002 31.8432 24.4395 31.7555 24.3527C31.6854 24.2486 31.6503 24.1359 31.6503 24.0144C31.6503 23.893 31.6854 23.7889 31.7555 23.7022C31.8257 23.5981 31.9222 23.5287 32.045 23.494C32.045 23.0776 32.0625 22.4704 32.0976 21.6724C32.1502 20.8744 32.1853 20.0156 32.2028 19.0962C32.2379 19.8422 32.2642 20.458 32.2818 20.9438C32.2993 21.4295 32.3081 21.8372 32.3081 22.1668C32.3256 22.4791 32.3344 22.7393 32.3344 22.9475C32.3344 23.1383 32.3431 23.3205 32.3607 23.494C32.4835 23.5287 32.5799 23.5981 32.6501 23.7022C32.7203 23.7889 32.7554 23.893 32.7554 24.0144ZM38.3859 23.8843C38.3859 24.1445 38.2544 24.318 37.9913 24.4048C37.9387 25.7232 37.9211 26.6514 37.9387 27.1892C37.9737 27.7096 37.9387 28.6898 37.8334 30.1297C37.8334 29.0888 37.8071 28.1086 37.7545 27.1892C37.7019 26.2697 37.6755 25.3416 37.6755 24.4048C37.5703 24.3701 37.4738 24.3094 37.3861 24.2226C37.316 24.1185 37.2809 24.0058 37.2809 23.8843C37.2809 23.7629 37.316 23.6588 37.3861 23.5721C37.4563 23.468 37.5528 23.3986 37.6755 23.3639C37.6755 22.9475 37.6931 22.3403 37.7282 21.5423C37.7808 20.7443 37.8159 19.8855 37.8334 18.9661C37.8685 19.712 37.8948 20.3279 37.9123 20.8137C37.9299 21.2994 37.9387 21.7071 37.9387 22.0367C37.9562 22.349 37.965 22.6092 37.965 22.8174C37.965 23.0082 37.9737 23.1904 37.9913 23.3639C38.1141 23.3986 38.2105 23.468 38.2807 23.5721C38.3509 23.6588 38.3859 23.7629 38.3859 23.8843Z" stroke="black" stroke-width="0.973684" mask="url(#path-1-outside-1)"/>
<path fill-rule="evenodd" clip-rule="evenodd" d="M41.1406 15.9995C41.4388 16.173 41.6493 16.5546 41.7721 17.1445C41.8949 17.717 41.965 18.3502 41.9826 19.0441C42.0176 19.7381 42.0176 20.4147 41.9826 21.0739C41.965 21.7331 41.9562 22.2189 41.9562 22.5311V22.9996C41.9562 23.1557 41.9299 23.3118 41.8773 23.468C41.8422 23.6067 41.7721 23.7369 41.6668 23.8583C41.5616 23.9797 41.4037 24.0665 41.1932 24.1185C41.3511 24.1879 41.4651 24.2486 41.5353 24.3007C41.623 24.3527 41.6844 24.4134 41.7194 24.4828C41.7721 24.5349 41.7984 24.6043 41.7984 24.691C41.8159 24.7778 41.8335 24.8905 41.851 25.0293C41.9563 25.7232 42.0089 26.3912 42.0089 27.033V29.0108C42.0089 29.6179 41.9738 30.2078 41.9036 30.7803C41.8335 31.3354 41.5528 31.8385 41.0617 32.2896C40.9213 32.4284 40.895 32.5238 40.9827 32.5758C41.0704 32.6279 41.1669 32.6539 41.2722 32.6539H46.2713C47.8675 32.6713 49.5426 32.6626 51.2967 32.6279C51.2616 32.1248 51.1915 31.5957 51.0862 31.0405C50.981 30.4854 50.8757 29.9042 50.7705 29.297C50.6652 28.6725 50.5688 28.0306 50.4811 27.3713C50.4109 26.7121 50.3758 26.0268 50.3758 25.3156C50.3758 24.7257 50.4284 24.3527 50.5337 24.1966C50.6389 24.0405 50.753 23.945 50.8757 23.9103C51.0161 23.8756 51.1388 23.8323 51.2441 23.7802C51.3493 23.7108 51.4107 23.4853 51.4283 23.1036C51.4283 22.722 51.2266 22.5311 50.8231 22.5311C50.2267 22.5311 49.797 22.7393 49.5339 23.1557C49.2883 23.5721 49.1129 24.0925 49.0076 24.717C48.9024 25.3416 48.8322 26.0182 48.7972 26.7468C48.7621 27.4581 48.6656 28.126 48.5077 28.7505C48.3674 29.3751 48.1218 29.8955 47.771 30.3119C47.4202 30.7282 46.8764 30.9364 46.1397 30.9364C46.0169 30.9364 45.8591 30.9191 45.6661 30.8844C45.4732 30.8497 45.2802 30.7976 45.0873 30.7282C44.9119 30.6415 44.754 30.5461 44.6137 30.442C44.4734 30.3206 44.4032 30.1818 44.4032 30.0256L44.3769 25.2115C44.3769 24.9512 44.4207 24.7257 44.5084 24.5349C44.6137 24.3267 44.8154 24.1792 45.1136 24.0925C44.8856 23.9884 44.7014 23.7716 44.5611 23.4419C44.4383 23.1123 44.3769 22.8 44.3769 22.5051C44.3769 21.6551 44.3944 20.8137 44.4295 19.9809C44.4646 19.1309 44.4734 18.2808 44.4558 17.4307C44.4558 17.1532 44.5084 16.945 44.6137 16.8062C44.7365 16.6501 44.868 16.5373 45.0083 16.4679C45.1662 16.3812 45.2978 16.3118 45.403 16.2597C45.5258 16.1903 45.5872 16.0949 45.5872 15.9735H44.64C44.219 15.9735 43.7717 15.9822 43.2981 15.9995H41.1406ZM43.6665 24.0665C43.6665 24.3267 43.5349 24.5002 43.2718 24.5869C43.2192 25.9054 43.1841 26.9029 43.1666 27.5795C43.149 28.2388 43.1315 29.1495 43.1139 30.3119C43.0789 29.4271 43.0438 28.4903 43.0087 27.5014C42.9736 26.4952 42.9561 25.5237 42.9561 24.5869C42.8508 24.5522 42.7544 24.4915 42.6666 24.4048C42.5965 24.3007 42.5614 24.1879 42.5614 24.0665C42.5614 23.945 42.5965 23.841 42.6666 23.7542C42.7368 23.6501 42.8333 23.5807 42.9561 23.546C42.9561 22.4531 42.9824 21.3775 43.035 20.3192C43.0876 19.2436 43.1139 18.1333 43.1139 16.9884C43.149 17.7343 43.1753 18.4109 43.1929 19.0181C43.228 19.6253 43.2455 20.1891 43.2455 20.7096C43.263 21.23 43.2718 21.7245 43.2718 22.1929V23.546C43.3946 23.5807 43.4911 23.6501 43.5612 23.7542C43.6314 23.841 43.6665 23.945 43.6665 24.0665Z" stroke="black" stroke-width="0.973684" mask="url(#path-1-outside-1)"/>
<path fill-rule="evenodd" clip-rule="evenodd" d="M62.9951 22.6613C63.0127 22.401 63.0214 22.1755 63.0214 21.9847C63.0214 20.5795 62.8285 19.4778 62.4426 18.6798C62.0567 17.8644 61.5129 17.2486 60.8113 16.8322C60.1097 16.4159 59.2589 16.1556 58.2591 16.0515C57.2768 15.9475 56.1893 15.8954 54.9965 15.8954C54.7509 15.8954 54.5054 15.9301 54.2598 15.9995C54.0318 16.0689 53.795 16.1383 53.5494 16.2077C53.9353 16.6067 54.2072 17.0924 54.3651 17.6649C54.5229 18.2374 54.6194 18.8446 54.6545 19.4865C54.6896 20.1111 54.6896 20.7443 54.6545 21.3862C54.6194 22.028 54.6018 22.6179 54.6018 23.1557C54.6018 23.4506 54.5229 23.7542 54.3651 24.0665C54.2072 24.3614 53.9616 24.5349 53.6283 24.5869C54.0493 24.9859 54.33 25.4196 54.4703 25.8881C54.6106 26.3565 54.6808 26.8682 54.6808 27.4234C54.6808 28.0826 54.6632 28.7505 54.6282 29.4271C54.6106 30.0864 54.6018 30.7456 54.6018 31.4048C54.6018 31.6997 54.4791 31.9426 54.2335 32.1335C54.0055 32.3069 53.7687 32.4544 53.5231 32.5758C53.681 32.5758 53.8388 32.5672 53.9967 32.5498C54.1546 32.5325 54.3037 32.5238 54.444 32.5238C55.1456 32.5238 55.8472 32.5585 56.5489 32.6279C57.2505 32.6799 57.9521 32.706 58.6538 32.706C59.6711 32.706 60.4605 32.5064 61.0218 32.1074C61.5831 31.7084 61.9953 31.214 62.2584 30.6242C62.5391 30.0343 62.7145 29.3837 62.7846 28.6725C62.8723 27.9612 62.9337 27.3019 62.9688 26.6948C63.0214 26.0876 63.0916 25.5671 63.1793 25.1334C63.2845 24.6997 63.495 24.4568 63.8108 24.4048C63.5477 24.3354 63.3547 24.2053 63.2319 24.0144C63.1267 23.8236 63.0565 23.6154 63.0214 23.3899C62.9863 23.147 62.9776 22.9041 62.9951 22.6613ZM59.7588 30.7022C59.2502 31.0665 58.6011 31.2487 57.8118 31.2487C57.7241 31.2487 57.5926 31.24 57.4171 31.2227C57.2593 31.2053 57.1803 31.1186 57.1803 30.9624C57.1803 30.1818 57.1716 29.4011 57.154 28.6204C57.154 27.8224 57.1453 27.033 57.1277 26.2524L56.9962 17.6649L58.3643 17.769C58.7853 17.8037 59.1274 17.9425 59.3905 18.1854C59.6536 18.4283 59.8553 18.7232 59.9956 19.0702C60.1535 19.3998 60.2588 19.7641 60.3114 20.1631C60.3815 20.5448 60.4166 20.9004 60.4166 21.23C60.4517 22.5138 60.478 23.7889 60.4956 25.0553C60.5131 26.3218 60.5219 27.5969 60.5219 28.8806C60.5219 29.7307 60.2675 30.3379 59.7588 30.7022ZM56.0753 24.9252C56.0051 25.012 55.9174 25.0727 55.8122 25.1074C55.8122 25.8707 55.7859 26.6254 55.7332 27.3713C55.6806 28.1173 55.6543 28.872 55.6543 29.6353C55.6192 29.5312 55.5929 29.271 55.5754 28.8546C55.5578 28.4209 55.5403 27.9525 55.5227 27.4494C55.5052 26.9463 55.4964 26.4692 55.4964 26.0182V25.1074C55.2333 25.0206 55.1018 24.8472 55.1018 24.5869C55.1018 24.4655 55.1368 24.3614 55.207 24.2747C55.2772 24.1706 55.3736 24.1012 55.4964 24.0665C55.4964 22.5051 55.5491 20.9264 55.6543 19.3304C55.6543 20.1111 55.6806 20.9004 55.7332 21.6984C55.7859 22.4791 55.8122 23.2685 55.8122 24.0665C55.9349 24.1012 56.0314 24.1706 56.1016 24.2747C56.1717 24.3614 56.2068 24.4655 56.2068 24.5869C56.2068 24.7084 56.163 24.8211 56.0753 24.9252Z" stroke="black" stroke-width="0.973684" mask="url(#path-1-outside-1)"/>
<path fill-rule="evenodd" clip-rule="evenodd" d="M74.2633 24.613C74.4036 24.0925 74.6492 23.8063 75 23.7542C74.7895 23.6328 74.6316 23.4593 74.5264 23.2338C74.4212 23.0082 74.3422 22.774 74.2896 22.5311C74.2545 22.2883 74.237 22.0367 74.237 21.7765C74.2545 21.5163 74.2633 21.2821 74.2633 21.0739C74.2633 20.8484 74.2545 20.5795 74.237 20.2672C74.237 19.9549 74.2194 19.6427 74.1843 19.3304C74.1493 19.0008 74.0966 18.6885 74.0265 18.3936C73.9739 18.0813 73.9037 17.8211 73.816 17.6129C73.6932 17.3353 73.5003 17.0751 73.2371 16.8322C72.974 16.5893 72.6671 16.3812 72.3163 16.2077C71.983 16.0342 71.6146 15.8954 71.2112 15.7913C70.8077 15.6872 70.4131 15.6352 70.0272 15.6352C69.501 15.6352 69.0098 15.7393 68.5538 15.9475C68.0977 16.1556 67.6855 16.4332 67.3171 16.7802C66.9488 17.1271 66.6418 17.5262 66.3962 17.9772C66.1682 18.4109 66.0191 18.8707 65.949 19.3564C65.8788 19.7381 65.8525 20.1544 65.87 20.6055C65.8876 21.0565 65.8876 21.4902 65.87 21.9066C65.87 22.323 65.8262 22.7046 65.7385 23.0516C65.6683 23.3986 65.5017 23.6501 65.2386 23.8063C65.4841 23.9103 65.6595 24.1272 65.7648 24.4568C65.87 24.7864 65.9402 25.1854 65.9753 25.6539C66.0103 26.1049 66.0279 26.6167 66.0279 27.1892C66.0454 27.7443 66.0717 28.2995 66.1068 28.8546C66.1594 29.3924 66.2471 29.9129 66.3699 30.416C66.5103 30.9017 66.7207 31.3094 67.0014 31.639C67.3873 32.0901 67.8784 32.4024 68.4748 32.5758C69.0888 32.7493 69.6764 32.8361 70.2377 32.8361C70.6411 32.8361 71.0446 32.7667 71.448 32.6279C71.869 32.4891 72.2461 32.2896 72.5794 32.0294C72.9302 31.7691 73.2196 31.4569 73.4476 31.0926C73.6757 30.7282 73.816 30.3292 73.8686 29.8955C73.9037 29.5486 73.9212 29.0455 73.9212 28.3862C73.9212 27.7096 73.9388 27.0417 73.9739 26.3825C74.0265 25.7059 74.123 25.1161 74.2633 24.613ZM71.5006 23.2598C71.4129 23.4853 71.2638 23.6501 71.0533 23.7542C71.2813 23.9624 71.4305 24.1619 71.5006 24.3527C71.5708 24.5436 71.6059 24.7864 71.6059 25.0814V25.9401C71.6234 26.2871 71.6234 26.6601 71.6059 27.0591C71.5883 27.4581 71.5532 27.8658 71.5006 28.2821C71.448 28.6985 71.3603 29.0715 71.2375 29.4011C71.1323 29.7307 70.9744 29.9996 70.7639 30.2078C70.5534 30.416 70.2903 30.5201 69.9746 30.5201C69.4834 30.5201 69.1238 30.3119 68.8958 29.8955C68.6678 29.4618 68.5187 28.9587 68.4485 28.3862C68.3784 27.8137 68.352 27.2412 68.3696 26.6687C68.4047 26.0789 68.4222 25.6278 68.4222 25.3156C68.4222 25.0553 68.4573 24.7864 68.5275 24.5089C68.6152 24.2139 68.8344 23.9711 69.1852 23.7802C68.8344 23.6067 68.6239 23.3292 68.5538 22.9475C68.5011 22.5658 68.4748 22.2189 68.4748 21.9066C68.4748 21.5943 68.4661 21.1953 68.4485 20.7096C68.4485 20.2238 68.4924 19.7554 68.5801 19.3044C68.6853 18.8533 68.8607 18.4716 69.1063 18.1594C69.3519 17.8298 69.729 17.6649 70.2377 17.6649C70.606 17.6649 70.8867 17.7951 71.0796 18.0553C71.2726 18.3155 71.4129 18.6278 71.5006 18.9921C71.5883 19.3391 71.6322 19.7034 71.6322 20.085C71.6497 20.4493 71.6585 20.7443 71.6585 20.9698C71.6585 21.178 71.6672 21.4209 71.6848 21.6984C71.7023 21.9587 71.6936 22.2276 71.6585 22.5051C71.6409 22.7654 71.5883 23.0169 71.5006 23.2598ZM67.6855 24.0144C67.6855 24.2747 67.5539 24.4481 67.2908 24.5349C67.2382 25.8534 67.2207 26.7815 67.2382 27.3193C67.2733 27.8397 67.2382 28.8199 67.133 30.2598C67.133 29.2189 67.1066 28.2388 67.054 27.3193C67.0014 26.3998 66.9751 25.4717 66.9751 24.5349C66.8698 24.5002 66.7734 24.4395 66.6857 24.3527C66.6155 24.2486 66.5804 24.1359 66.5804 24.0144C66.5804 23.893 66.6155 23.7889 66.6857 23.7022C66.7558 23.5981 66.8523 23.5287 66.9751 23.494C66.9751 23.0776 66.9926 22.4704 67.0277 21.6724C67.0803 20.8744 67.1154 20.0156 67.133 19.0962C67.168 19.8422 67.1944 20.458 67.2119 20.9438C67.2294 21.4295 67.2382 21.8372 67.2382 22.1668C67.2557 22.4791 67.2645 22.7393 67.2645 22.9475C67.2645 23.1383 67.2733 23.3205 67.2908 23.494C67.4136 23.5287 67.5101 23.5981 67.5802 23.7022C67.6504 23.7889 67.6855 23.893 67.6855 24.0144ZM73.3161 23.8843C73.3161 24.1445 73.1845 24.318 72.9214 24.4048C72.8688 25.7232 72.8512 26.6514 72.8688 27.1892C72.9039 27.7096 72.8688 28.6898 72.7635 30.1297C72.7635 29.0888 72.7372 28.1086 72.6846 27.1892C72.632 26.2697 72.6057 25.3416 72.6057 24.4048C72.5004 24.3701 72.404 24.3094 72.3163 24.2226C72.2461 24.1185 72.211 24.0058 72.211 23.8843C72.211 23.7629 72.2461 23.6588 72.3163 23.5721C72.3864 23.468 72.4829 23.3986 72.6057 23.3639C72.6057 22.9475 72.6232 22.3403 72.6583 21.5423C72.7109 20.7443 72.746 19.8855 72.7635 18.9661C72.7986 19.712 72.8249 20.3279 72.8425 20.8137C72.86 21.2994 72.8688 21.7071 72.8688 22.0367C72.8863 22.349 72.8951 22.6092 72.8951 22.8174C72.8951 23.0082 72.9039 23.1904 72.9214 23.3639C73.0442 23.3986 73.1407 23.468 73.2108 23.5721C73.281 23.6588 73.3161 23.7629 73.3161 23.8843Z" stroke="black" stroke-width="0.973684" mask="url(#path-1-outside-1)"/>
</svg>
